<?xml version="1.0"?><svg width="673.228" height="581.102" xmlns="http://www.w3.org/2000/svg">
 <title>law</title>
 <metadata id="metadata40">image/svg+xmlInternational Criminal Court logo scale justice blue plant vine tree</metadata>
 <g>
  <title>Layer 1</title>
  <g id="layer1">
   <g id="g2588">
    <path d="m542.559021,268.473999c0,0 0,0 -0.231995,0l-2.781006,-5.214996l-0.116028,0l-83.789001,-152.164001l-237.922989,0l-0.811005,1.622002l-85.64299,155.756996l0.230988,0l-0.11499,0c-0.115997,0 -0.115997,0 -0.115997,0c0,0 0,0.115997 0.115997,0.231995l-0.115997,0.115997l0.346985,0c5.331009,5.910004 83.442001,88.192017 172.32901,0l0.347992,0l-0.115997,-0.231995c0.115997,0 0.115997,0 0.115997,-0.115997l-0.115997,0l0,0l0,0l-1.738007,-3.360992l-1.042999,-1.854004l-0.115997,0l-80.543991,-146.486l0.115997,-0.231003l110.560013,0c0,0.695 -0.812012,11.473 -14.603027,182.99099c-0.926971,23.757019 -11.008972,31.522003 -18.889984,33.956024l-87.845001,0c-7.417007,0 -13.326996,5.561981 -13.326996,12.399994c0,6.837006 5.909988,12.283997 13.326996,12.283997l256.002014,0c7.300995,0 13.327972,-5.446991 13.327972,-12.283997c0,-6.838013 -6.026978,-12.399994 -13.327972,-12.399994l-90.047028,0c-7.995972,-2.318024 -18.194977,-10.199005 -19.121979,-33.956024c-13.675018,-171.51799 -14.486023,-182.29599 -14.60202,-182.99099l110.212006,0l-80.776001,146.717003l0,0l-2.781006,5.214996l0.116028,0l0,0l-0.232025,0c0.115997,0.115997 0.115997,0.115997 0.115997,0.115997l-0.115997,0.231995l0.348022,0c89.350983,88.192017 167.692993,5.910004 173.023987,0l0.348022,0l-0.116028,-0.115997c0.116028,-0.115997 0.116028,-0.231995 0.116028,-0.231995l0,0zm-247.194031,-5.214996l-155.177994,0l77.531006,-141.039001l77.646988,141.039001zm82.39801,0l77.761993,-141.270004l77.878998,141.270004l-155.640991,0" fill-rule="nonzero" fill="#000000" id="path26"/>
    <path d="m420.757996,548.812988c0,0 -67.911987,-78.804993 -147.527985,-56.78598c-36.622009,14.949982 -58.177017,25.496002 -69.998016,27.813019c-11.705002,2.085999 -39.286987,4.287964 -56.090988,-7.069031c30.826996,28.161011 59.450989,29.900024 80.543991,25.960022c21.091995,-4.057007 42.18399,-21.208008 47.631012,-25.612c5.561981,-4.288025 25.610992,-28.162018 64.550995,-12.748016c28.161011,13.210968 63.971008,52.035004 69.997009,58.988007c10.893982,-10.546021 10.893982,-10.546021 10.893982,-10.546021" fill-rule="nonzero" fill="#000000" id="path28"/>
    <path d="m272.765991,490.519989c-0.115997,0 -31.521988,13.212006 -31.521988,13.212006c-18.427002,7.880005 -30.595001,12.979004 -38.360001,14.486023c-3.593002,0.695007 -35.809998,6.141968 -54.81601,-6.838013l-1.969986,2.434021c0,0.115967 0.115997,0.231995 0.115997,0.231995c25.147995,22.829956 52.613998,31.638 81.817993,26.190979c14.022995,-2.664978 30.248001,-11.241028 48.095016,-25.72699c0.230988,-0.116028 2.317993,-1.971008 2.317993,-1.971008c7.300995,-6.605011 26.653992,-24.221008 60.84198,-10.661987c27.234009,12.747986 62.117004,49.948975 69.303009,58.524963l1.15799,1.275024l13.212006,-12.747986l-1.042999,-1.158997c-0.695007,-0.811035 -69.417999,-79.269012 -149.151001,-57.250031zm-69.186996,30.826996c7.997009,-1.506958 20.281006,-6.721985 38.824005,-14.717987l31.405991,-13.096008c74.170013,-20.511993 138.605011,48.443024 144.747009,55.164032c-1.622009,1.622986 -6.953003,6.721985 -8.691986,8.343994c-8.923004,-10.197998 -42.416016,-45.545013 -69.417999,-58.061005c-36.042023,-14.370026 -56.439026,4.171997 -64.203003,11.241974l-1.855011,1.738007c-17.61499,14.139008 -33.376007,22.59903 -47.050995,25.14798c-24.917007,4.752014 -48.557999,-1.969971 -70.577011,-18.773987c19.585007,6.837036 43.574005,3.592041 46.819,3.013" fill-rule="nonzero" fill="#000000" id="path30"/>
    <path d="m258.048004,488.43399c0,0 -43.807007,9.387024 -60.263,14.139008c-16.457001,4.867004 -72.084007,5.794006 -104.533401,-43.575012c25.727394,21.09201 57.250397,21.09201 69.882401,20.628021c12.748001,-0.347015 45.544998,4.519989 61.653,7.53299c-0.347,-3.013 -16.572006,-6.605011 -21.438995,-9.154999c-4.868011,-2.549988 -18.543015,-6.605988 -35.115005,-42.764008c-5.563004,-11.009003 -6.490005,-17.151001 -10.313995,-20.511993c6.952988,1.042999 20.511993,15.644989 24.68399,20.049011c4.171997,4.403992 29.436005,33.492004 43.807007,40.908997c14.369995,7.53299 21.440002,11.126007 31.638,12.747986" fill-rule="nonzero" fill="#000000" id="path32"/>
    <path d="m156.875,416.002991c2.087006,1.738007 3.244995,4.519012 4.983994,8.807007l4.983002,11.126007c15.41301,33.723999 28.277008,39.865997 34.419998,42.878998l1.274002,0.579987l8.924011,3.245026c0.926987,0.346985 2.201996,0.810974 3.360992,1.158997c-16.572998,-2.666016 -40.794006,-6.027008 -51.686996,-5.679016c-28.162003,0.811005 -51.340004,-6.026001 -68.839302,-20.397003l-2.4338,2.201996c31.2901,47.399017 86.107101,50.181 106.3871,44.154022c16.108994,-4.751007 59.684006,-13.906006 60.147995,-14.022003l-0.115997,-3.128998c-10.082993,-1.739014 -17.151993,-5.331024 -31.175003,-12.632019c-12.167999,-6.375 -32.796997,-29.088989 -40.561996,-37.664978l-2.781006,-3.013l-1.042999,-1.042999c-8.692001,-9.154999 -18.425995,-18.542023 -24.569,-19.354004l-1.274994,2.781982zm55.511993,63.623016l-8.343994,-3.013l-1.391006,-0.695007c-5.446991,-2.549988 -17.962997,-8.691986 -32.912994,-41.372986c0,-0.116028 -4.983002,-11.01001 -4.983002,-11.01001c-0.927002,-2.433014 -2.085999,-3.59201 -3.128998,-5.330017c6.374008,3.708008 15.065994,12.632019 18.774002,16.572021l1.042999,1.042999l2.666,3.013c7.880005,8.575989 28.856003,31.753998 41.604004,38.359985c10.893997,5.678009 17.731995,9.154999 25.03299,11.240997c-13.095993,2.897003 -41.026001,8.924011 -53.425995,12.632019c-18.425995,5.446991 -66.173004,3.013 -96.884003,-35.346008c16.920006,10.893005 37.895996,16.339996 62.811996,15.528992c12.169006,-0.347992 43.807007,4.171997 61.19101,7.416992l2.085999,0.463013l-0.231995,-2.200989c0,-0.46402 -0.927002,-0.812012 -1.275009,-1.274994l0,0c0,0 -0.115997,-0.116028 -0.115997,-0.116028c-1.505997,-1.853973 -4.983002,-3.47699 -12.516006,-5.91098" fill-rule="nonzero" fill="#000000" id="path34"/>
    <path d="m177.156006,470.819c0,0 -22.019012,-6.027008 -38.359009,-8.343994c-16.457001,-2.201996 -73.822594,-16.688995 -96.189499,-84.020996c22.598701,26.306976 27.6978,27.929993 40.909401,34.535004c13.3274,6.605988 53.425102,29.436981 67.3321,41.952972c4.056,2.318024 4.056,2.318024 4.056,2.318024c0,0 1.391006,-1.739014 -4.750992,-6.95401c-5.911011,-5.330994 -26.19101,-23.756989 -29.320007,-65.014008c-2.550003,-18.195007 -6.606003,-34.766998 -7.880997,-36.968994c9.154999,5.214996 19.932999,26.307007 22.134995,32.21701c2.201996,6.026001 17.035995,47.630981 19.005997,52.613983c1.854004,4.868011 13.907013,31.291016 23.062012,37.665009" fill-rule="nonzero" fill="#000000" id="path36"/>
    <path d="m111.561996,349.018005c1.043007,1.854004 5.100006,17.962982 7.649002,36.505005c1.507004,19.354004 7.881004,46.587982 29.899994,65.941986c0.116013,0 0.116013,0 0.116013,0.115997c-15.298004,-12.631989 -51.687408,-33.376007 -65.014809,-39.981995l-2.085999,-1.158997c-11.473198,-5.679016 -17.2677,-8.459991 -38.243896,-33.028992l-2.781403,1.506989c24.336998,73.358002 90.047096,84.252014 97.464104,85.178986c16.108994,2.086029 37.895996,8.344025 38.127991,8.344025l1.389999,-2.781006c-8.459991,-6.026001 -20.279999,-31.175018 -22.597992,-37.084991l-18.889999,-52.498016c-2.085999,-5.446991 -12.980003,-27.466003 -22.831001,-33.144989l-2.202003,2.085999zm44.617996,109.169006c0.348007,-0.348022 0.464005,-0.812012 0.464005,-1.391022c0,-1.506989 -1.042999,-3.940002 -5.446991,-7.648987c-21.09201,-18.774017 -27.350006,-45.080994 -28.741005,-63.971008c-1.737999,-12.515991 -4.288002,-24.684998 -6.258003,-31.753998c7.649002,7.64801 15.529007,22.713989 17.382996,27.697998l19.007004,52.614014c1.274002,3.360992 10.777008,24.220978 19.701004,34.186981c-7.417007,-1.854004 -21.671997,-5.445984 -33.376007,-6.953003c-6.722,-0.927002 -64.783295,-11.240997 -90.858593,-74.053986c15.761097,17.5 22.250896,21.324005 32.565197,26.423004l2.201904,1.042999c13.790894,6.95401 53.309494,29.436005 66.984497,41.721008c0.231995,0.231995 4.404007,2.548981 4.404007,2.548981l1.158997,0.696014l0.810989,-1.158997" fill-rule="nonzero" fill="#000000" id="path38"/>
    <path d="m115.849998,415.886993c0,0 -27.581696,-16.108978 -42.763397,-27.929993c-15.181602,-11.937012 -57.829301,-42.994995 -53.425402,-98.158997c6.605801,17.846985 17.383501,34.071991 29.088499,43.921997c11.704903,9.96701 32.912899,41.256989 38.012104,48.558014c4.9832,7.301971 8.4599,9.271973 8.4599,9.271973c0,0 1.622597,-3.592987 -4.056099,-9.850983c-4.172005,-6.722015 -11.705002,-22.483002 -7.648705,-56.902008c5.099197,-31.985992 6.9534,-39.63501 6.026199,-44.618011c4.4039,11.241028 10.198402,35.463013 12.399902,73.359009c1.275002,21.438995 3.709,38.011993 6.489998,45.313019c2.897003,7.184998 7.417,17.03598 7.417,17.03598" fill-rule="nonzero" fill="#000000" id="path40"/>
    <path d="m88.036499,280.527008c0.115898,0.694977 0.115898,1.505981 0.115898,2.432983c0,3.593018 -0.926994,9.272003 -2.897194,21.324005l-3.244904,20.281006c-0.811302,6.838013 -1.274803,13.096008 -1.274803,19.006012c0,16.224976 3.0131,29.319977 9.039406,38.938995c1.9701,2.085999 2.897301,3.708984 3.4767,5.098999c-1.390701,-1.390015 -3.129005,-3.244995 -5.215103,-6.257996c0,0 -1.738297,-2.433014 -1.738297,-2.433014c-6.9534,-10.199005 -25.727703,-37.200989 -36.505501,-46.355988c-11.473103,-9.735016 -22.135002,-25.844025 -28.740801,-43.344025l-3.013201,0.46402c-4.288,54.005005 35.3466,84.832001 52.266598,98.158997l1.738403,1.274994c15.065796,11.821014 42.647301,28.04599 42.879295,28.161011l2.318001,-1.970001l-7.300995,-17.036011c-2.782005,-7.416992 -5.215004,-24.105011 -6.490005,-44.848999c-2.666,-45.893005 -10.198395,-68.143982 -12.400299,-73.822998l-3.013199,0.928009zm0.347702,24.220978c1.274796,-7.300995 1.9702,-11.936981 2.433701,-15.644989c3.129097,10.893005 7.532898,31.290009 9.503098,64.550995c1.275002,20.976013 3.708,38.011993 6.722,45.776001c0,0 3.245003,7.53302 5.331001,12.632019c-8.229004,-4.983002 -26.887001,-16.456024 -38.360199,-25.380005l-1.738304,-1.390015c-15.645199,-12.285004 -51.339497,-40.097992 -51.339497,-87.613983c0,-0.57901 0,-1.15802 0,-1.738007c6.8375,15.760986 16.1087,30.015991 26.770699,39.054993c10.546001,8.808014 29.088497,35.694 36.041897,45.777008l1.622505,2.43399c5.215096,7.416992 8.923599,9.619019 9.039398,9.734009l1.622498,0.928009l0.579399,-1.739014c0.347801,-0.463013 1.854301,-4.751007 -4.287895,-11.588989c-7.648804,-12.283997 -10.082397,-31.058014 -7.185204,-55.511017c0,0 3.244904,-20.281006 3.244904,-20.281006" fill-rule="nonzero" fill="#000000" id="path42"/>
    <path d="m69.957703,339.050995c0,0 -9.503101,-14.833984 -18.079002,-24.567993c-8.575802,-9.502991 -46.47203,-52.382996 -26.8866,-124.699005c0,16.805008 2.317801,26.307999 4.0562,32.334c1.9702,5.910004 20.744402,46.240005 22.5987,57.134018c1.854202,10.893982 4.983299,31.405975 9.3871,33.723999c1.622402,-1.042999 -0.2318,-4.636017 -0.811199,-7.996002c-0.6954,-3.245026 -6.1423,-31.291016 10.314201,-61.770004c14.949898,-26.771011 17.731201,-29.320007 19.933197,-38.59201c0.695305,17.5 -4.983299,52.151016 -9.503098,66.753006c-4.403702,14.487 -16.340599,48.210999 -11.009499,67.679993" fill-rule="nonzero" fill="#000000" id="path44"/>
    <path d="m50.719799,315.641998c8.344101,9.386993 17.847202,24.105011 17.847202,24.221008l2.897202,-1.274994c-4.635605,-16.920013 4.519699,-45.893005 9.387199,-61.538025l1.622398,-5.214996c4.288002,-13.906982 10.314301,-49.021988 9.618996,-67.331985l-3.129097,-0.348007c-1.622498,6.374008 -3.360802,9.619003 -9.503098,20.165009l-10.314201,18.194992c-9.734802,17.962997 -11.936699,35.229996 -11.936699,47.283005c0,7.069 0.811298,11.936981 1.274799,14.485992c-2.086002,-7.069 -3.940201,-17.382996 -4.983299,-22.945984l-0.347603,-2.318024c-1.274899,-7.648987 -10.0825,-28.160995 -16.572399,-43.110992l-5.9105,-14.25499c-1.7383,-5.562012 -4.056101,-15.065002 -4.056101,-31.87001l-3.129,-0.462997c-12.863799,47.399002 -3.129099,92.249008 27.2342,126.320999l0,0zm2.317902,-2.201996c-21.0921,-23.526001 -31.8699,-52.498993 -31.8699,-83.904999c0,-8.807999 1.158899,-17.731003 2.781399,-26.770996c0.811201,9.386993 2.317801,15.644989 3.5926,19.816986c0,0 6.142099,14.603012 6.142099,14.603012c6.026402,13.906998 15.181702,35.113998 16.340603,42.300003c0,0 0.347698,2.432983 0.347698,2.432983c2.897202,16.341003 5.562698,30.132019 9.966499,32.450012l0.811199,0.346985l0.811302,-0.462982c0.9272,-0.580017 1.274799,-1.623016 1.274799,-2.666016c0,-1.273987 -0.347599,-2.664978 -0.811199,-4.056l-0.695301,-2.781006c-0.4636,-2.085999 -1.3908,-7.416992 -1.3908,-15.065979c0,-11.58902 2.2019,-28.277008 11.705002,-45.661011l10.198402,-18.078995c2.897194,-5.098999 4.867393,-8.460007 6.258095,-11.473007c-0.9272,18.774002 -5.562798,44.850006 -9.039597,56.438995l-1.622398,5.214996c-4.287903,13.559021 -10.8937,34.303009 -10.8937,51.33902c0,1.85498 0.463593,3.47699 0.695297,5.214996c-3.592598,-5.214996 -9.1553,-13.095001 -14.6021,-19.237" fill-rule="nonzero" fill="#000000" id="path46"/>
    <path d="m54.080601,251.091003c0,0 -5.6786,-23.063004 -12.632,-41.488998c-6.9534,-18.542999 -20.2808,-61.53801 14.254498,-106.388008c-7.301098,17.847 -4.403797,29.435997 -4.403797,31.407005c0,1.970001 4.287899,41.604004 4.403797,51.455002c0.115902,12.631989 -2.201897,34.418991 -2.201897,34.418991c0,0 0.811199,2.666 2.549599,0c1.042999,-1.621994 3.360798,-29.78299 20.280796,-46.587997c15.645302,-15.645004 28.393402,-27.466003 31.870407,-33.955002c0,11.473007 -6.606003,28.393005 -12.053101,37.548004c-5.331001,9.270996 -27.466003,39.634995 -32.565205,49.832993c-4.983299,10.314011 -9.503098,22.483002 -9.503098,23.758011" fill-rule="nonzero" fill="#000000" id="path48"/>
    <path d="m39.942001,210.181c6.837597,18.078995 12.516197,41.141006 12.632,41.373001l3.129097,-0.348007c0.115902,-1.273987 4.288002,-12.748001 9.387203,-23.061996c2.897202,-6.026001 11.820801,-19.121994 19.8172,-30.710999l12.632095,-19.121994c5.9104,-10.082001 12.168404,-27.001999 12.168404,-38.359009l-2.897003,-0.811996c-2.781998,5.214996 -11.820999,14.139008 -23.410095,25.496002l-8.228104,8.112991c-14.0229,13.906006 -18.310799,35.694 -19.933197,43.806c0,0 -0.347702,1.854004 -0.4636,2.666c0.579498,-2.897995 2.433701,-33.144989 2.433701,-33.144989l-3.245003,-40.678009l-1.158798,-12.283997c-0.231899,-1.390991 -0.4636,-3.593002 -0.4636,-6.489998c0,-5.331001 0.927101,-13.095001 4.751499,-22.830002l-2.665501,-1.623001c-24.452898,31.870003 -29.320299,68.144005 -14.486298,108.010002zm3.013199,-1.158997c-5.4468,-14.602005 -8.228199,-28.740997 -8.228199,-42.300003c0,-19.005997 5.6786,-36.852997 16.3405,-53.656998c-1.274799,5.331001 -1.854301,10.082001 -1.854301,13.558998c0,3.012993 0.2318,5.331001 0.347801,6.838005c0.231701,1.158997 1.158798,12.283997 1.158798,12.283997l3.360802,40.330002c0,0 -2.2019,34.188004 -2.2019,34.188004c0.2318,1.042999 0.811199,2.780991 2.433701,2.896988c1.158897,0.23201 2.202,-0.463989 3.013199,-1.853989c0,0 1.042999,-4.172012 1.042999,-4.172012c1.622501,-7.880997 5.678604,-28.856995 19.006004,-42.069c0,0 8.3442,-8.227997 8.3442,-8.227997c9.502899,-9.386993 15.993195,-16.108994 20.165199,-21.556c-1.507004,10.893997 -6.837799,24.222 -11.125801,31.522995l-12.516098,18.890015c-7.996506,11.588989 -17.035904,24.799988 -20.049103,30.942993c-3.013203,6.141998 -6.026302,13.559006 -7.8806,18.774002c-2.2019,-7.880997 -6.373901,-23.294006 -11.357201,-36.389999" fill-rule="nonzero" fill="#000000" id="path50"/>
    <path d="m64.047203,172.516998c0,0 2.549698,-6.373993 0.231796,-32.102005c-2.433701,-25.727997 -3.4767,-60.842392 36.389999,-84.484093c-9.966896,16.688301 -11.589401,19.585602 -14.6026,33.260597c-3.013199,13.559502 -6.374001,35.346504 -11.820801,47.630508c-2.201897,6.026993 -3.592598,10.778 -2.549599,11.357986c0.927101,0.57901 1.390602,-0.463989 2.086098,-2.549988c0.927002,-2.085999 9.039406,-20.512009 25.495804,-32.217003c16.4561,-11.705002 31.290092,-23.410301 36.853096,-34.999199c-2.43399,21.439598 -10.545998,29.088196 -18.657997,39.866196c-8.807999,11.705002 -40.445999,36.158005 -45.777,44.154007c-5.4468,7.880997 -7.648796,10.082993 -7.648796,10.082993" fill-rule="nonzero" fill="#000000" id="path52"/>
    <path d="m62.656502,140.531006c2.317902,24.684998 -0.115902,31.289993 -0.115902,31.289993l2.549702,1.854996l7.880501,-10.429993c2.433701,-3.593002 11.009598,-11.126007 19.933098,-19.122009c10.430099,-9.155991 21.208099,-18.658997 25.844101,-24.916992c0,0 3.243996,-4.171997 3.243996,-4.171997c6.954002,-8.923004 13.560005,-17.383507 15.762001,-36.389503l-3.013992,-0.927101c-5.562012,11.473099 -20.744003,23.293602 -36.389206,34.419601c-11.936699,8.459999 -19.469597,20.281006 -23.293999,27.350006c0.231796,-0.811005 0.347702,-1.042999 0.695396,-2.086014c4.172005,-9.270996 6.9534,-23.872993 9.618904,-36.620995l2.201897,-11.241798c3.013199,-13.211502 4.4039,-15.876999 14.486,-32.797001l-2.201599,-2.202c-42.879498,25.495903 -39.170998,64.898804 -37.200897,85.990807zm4.172096,18.65799c0,-4.750992 -0.231697,-10.89299 -1.042999,-18.889999c-0.4636,-4.983002 -0.927101,-11.009003 -0.927101,-17.614998c0,-18.773994 5.562706,-42.068298 30.1315,-60.147297c-6.142197,10.430096 -7.996399,14.949902 -10.430199,26.307102l-2.433601,11.241196c-2.4338,12.632004 -5.331001,27.002998 -9.387199,36.157997c-2.201897,5.911011 -3.013199,9.154999 -3.013199,11.01001c0,1.273987 0.463699,1.853989 1.159004,2.317001l0.579399,0.347992l1.390694,-0.115997c1.274803,-0.462997 1.854202,-1.854004 2.433701,-3.708008c0.811203,-1.853989 9.039505,-20.048996 24.916405,-31.406998c13.096001,-9.270996 25.495995,-19.121498 32.912994,-28.856293c-2.666,12.632095 -7.764999,19.701294 -13.674995,27.350296l-3.245003,4.056c-4.519997,6.026001 -15.528999,15.876999 -25.380096,24.569c-9.502998,8.460007 -17.847099,15.761002 -20.512604,19.701004c0,0 -1.854195,2.550003 -3.708397,4.983002c0.115799,-1.970001 0.231697,-4.172012 0.231697,-7.30101" fill-rule="nonzero" fill="#000000" id="path54"/>
    <path d="m93.8311,104.257004c0,0 5.215103,-27.233902 15.644897,-43.342804c10.43,-16.1087 32.102005,-30.3633 54.932007,-37.4326c-7.996002,6.721701 -12.863007,12.747999 -15.645004,17.6154c-2.781006,4.751499 -20.048996,31.753899 -27.929001,40.329803c-8.112999,8.575897 -21.092499,16.340599 -27.002899,22.8302" fill-rule="nonzero" fill="#000000" id="path56"/>
    <path d="m108.085999,59.987202c-10.430496,16.224598 -15.529701,42.879795 -15.761497,43.922802l2.781296,1.389999l11.589203,-9.850304l15.181999,-12.979797c8.227997,-8.807701 25.611008,-35.926003 28.277008,-40.561703c3.244995,-5.6786 8.343994,-11.4732 15.296997,-17.267599l-1.505997,-2.6656c-24.105011,7.417099 -45.429008,22.019201 -55.859009,38.012201zm2.780998,1.738297c8.808006,-13.675098 26.422997,-26.075397 46.588005,-33.839998c-4.056,4.171999 -7.649002,8.344099 -10.082001,12.400202c-2.666,4.519798 -19.818001,31.406399 -27.814003,40.098202c0,0 -19.585701,16.572296 -23.178299,19.585396c1.9701,-8.344101 6.837303,-26.422897 14.486298,-38.243801" fill-rule="nonzero" fill="#000000" id="path58"/>
    <path d="m258.510986,550.898987c0,0 65.942017,-80.543976 146.022003,-60.494995c37.085022,14.02301 58.757019,23.98999 70.694,25.843994c11.820007,1.970032 39.286011,3.47699 55.859009,-8.459991c-30.131989,28.972015 -58.756989,31.522003 -79.848999,28.045013c-21.208008,-3.476013 -42.647003,-20.049011 -48.209991,-24.337006c-5.563019,-4.287994 -26.423004,-27.466003 -64.78302,-11.125c-28.044983,13.907013 -62.812988,53.540985 -68.606995,60.725983c-11.126007,-10.197998 -11.126007,-10.197998 -11.126007,-10.197998" fill-rule="nonzero" fill="#000000" id="path60"/>
    <path d="m257.237,549.856018l-0.927002,1.158997l13.55899,12.399963l1.042999,-1.389954c7.069,-8.692017 41.141022,-46.820007 68.027008,-60.263031c33.723999,-14.371002 53.541992,2.781006 60.959015,9.270996l2.085999,1.738007c18.425995,14.02301 34.766998,22.367004 49.020996,24.684998c29.204987,4.63501 56.554993,-4.867981 81.007996,-28.277008c0.116028,-0.115997 0.116028,-0.115997 0.116028,-0.231995l-1.970032,-2.43399c-18.774994,13.442993 -51.108002,8.807983 -54.700989,8.228027c-7.764008,-1.275024 -19.817017,-6.026031 -38.128021,-13.327026l-32.21698,-12.515991c-80.312012,-20.165009 -147.181,60.146973 -147.876007,60.958008zm146.949005,-57.945007l31.985992,12.515991c18.541992,7.300995 30.709991,12.169006 38.822998,13.442993c3.013,0.463989 25.843018,3.593018 44.848999,-2.896973c-21.09198,16.45697 -43.921997,23.177979 -68.375,19.237976c-13.55899,-2.202026 -29.552002,-10.198975 -47.28299,-23.873993c-0.231995,-0.115021 -2.201996,-1.738007 -2.201996,-1.738007c-7.881012,-6.837006 -28.740997,-24.915985 -64.434998,-9.618988c-26.539001,13.095978 -59.335999,49.253998 -68.028015,59.800018c-1.738007,-1.507019 -7.184998,-6.606018 -8.807983,-7.997009c5.91098,-6.953003 68.608002,-77.530029 143.472992,-58.872009" fill-rule="nonzero" fill="#000000" id="path62"/>
    <path d="m419.714996,486.463989c0,0 44.037994,8.112 60.494995,12.516022c16.572021,4.403992 72.31601,3.940002 103.605988,-46.240021c-25.263977,21.787018 -56.901978,22.598999 -69.533997,22.483002c-12.631989,-0.115997 -45.428986,5.562012 -61.305969,9.039001c0.230988,-3.128998 16.339996,-7.069 21.207977,-9.734985c4.751007,-2.665009 18.309998,-7.069 33.955017,-43.690002c5.446991,-11.126007 6.142975,-17.384003 9.96701,-20.744995c-6.953003,1.274994 -20.165009,16.224976 -24.221008,20.628998c-4.171997,4.634979 -28.740997,34.302979 -42.880005,42.067993c-14.138,7.996002 -21.207001,11.588989 -31.290009,13.674988" fill-rule="nonzero" fill="#000000" id="path64"/>
    <path d="m493.88501,428.403015l-1.158997,1.274994l-3.129028,3.475983c-7.53299,8.692017 -27.465973,31.753998 -39.286987,38.244019c-14.369995,8.112976 -21.208008,11.472992 -30.942993,13.444l0,3.128998c0.347992,0.115997 44.154999,8.227997 60.494995,12.515991c20.397003,5.562012 75.213013,1.390015 105.229004,-46.936005l-2.317993,-1.970001c-17.268005,14.834015 -40.330017,22.251007 -68.375,22.019012c-11.01001,-0.115997 -34.999023,3.824982 -51.688019,7.069c1.158997,-0.463013 2.434021,-0.927002 3.47702,-1.274017l8.691986,-3.47699l1.390991,-0.695007c5.562012,-2.781982 18.65802,-9.502991 33.376007,-43.690979l4.752014,-11.241028c1.622009,-4.287994 2.781006,-7.185974 4.63501,-8.923981l-1.275024,-2.781006c-6.026001,1.042999 -15.412994,10.54599 -23.872986,19.817017zm-42.068024,45.892975c12.284027,-6.953979 31.869019,-29.436981 40.21402,-39.056l3.013,-3.359985l1.274994,-1.390991c3.59201,-3.940002 11.936005,-12.864014 18.07901,-16.804016c-0.92804,1.738007 -2.085999,3.013 -3.014008,5.446991l-4.63501,11.009003c-14.255005,33.261017 -26.654999,39.519012 -31.985992,42.300018l-1.390991,0.695984c0,0 -8.227997,3.244995 -8.227997,3.244995c-7.53302,2.665009 -10.894012,4.403015 -12.400024,6.258026c0,0 -0.115997,0.11499 -0.115997,0.11499l0,0c-0.347992,0.463989 -1.158997,0.928009 -1.274994,1.390991l-0.115997,2.201996l2.085999,-0.578979c14.834015,-3.245026 47.979004,-9.040009 60.958984,-8.924011c24.916016,0.115997 45.776001,-5.794006 62.465027,-17.268005c-29.900024,39.287018 -77.531006,42.880005 -96.074005,37.897003c-12.399994,-3.360992 -40.561005,-8.808014 -53.77301,-11.242004c7.070007,-2.317993 13.791016,-5.794006 24.916992,-11.936005zm57.82901,-42.763977l0,0" fill-rule="nonzero" fill="#000000" id="path66"/>
    <path d="m500.259003,466.763c0,0 21.67099,-6.722015 38.011993,-9.272003c16.455994,-2.665009 73.474976,-18.65799 94.103027,-86.570007c-21.903015,26.887024 -26.887024,28.625 -39.981995,35.695007c-13.096008,6.837006 -52.730042,30.595001 -66.405029,43.458008c-4.057007,2.43399 -4.057007,2.43399 -4.057007,2.43399c0,0 -1.158997,-1.622009 4.635986,-6.953003c5.911011,-5.446991 25.728027,-24.453003 27.929993,-65.825989c2.085999,-18.195007 5.794006,-34.766998 7.069031,-37.200989c-9.039001,5.562988 -19.354004,27.001984 -21.440002,32.912994c-2.085999,6.026001 -15.992981,47.979004 -17.731018,52.962006c-1.854004,4.982971 -13.211975,31.63797 -22.134979,38.359985" fill-rule="nonzero" fill="#000000" id="path68"/>
    <path d="m538.619019,374.97699l-17.731995,52.962006c-2.317017,6.141998 -13.443024,31.407013 -21.671021,37.549011l1.390991,2.781006c0.231018,0 21.903015,-6.722015 38.012024,-9.271027c7.300964,-1.158997 72.778992,-13.674988 95.376953,-87.612976l-2.780945,-1.507019c-20.628052,25.264008 -25.959045,28.046021 -37.548035,34.188019l-2.085999,1.042999c-12.97998,6.953003 -48.326965,28.276978 -63.73999,41.372986c21.440002,-20.048981 27.234009,-47.28299 28.276978,-66.636993c2.085999,-18.658997 5.679016,-34.651001 6.838013,-36.506012l-2.317993,-2.201996c-9.734985,6.027008 -20.049011,28.393005 -22.018982,33.839996zm-14.718018,54.005005c0,0 17.731018,-52.962006 17.731018,-52.962006c1.737976,-5.098999 9.270996,-20.279999 16.687988,-28.16098c-1.738037,7.069 -3.940002,19.005981 -5.447021,31.638c-1.505981,27.466003 -10.661987,49.253998 -27.349976,64.898987c-4.05603,3.708008 -5.215027,6.141998 -5.215027,7.649017c0,0.578979 0.116028,1.15799 0.463013,1.505981l0.812012,1.042999l5.214966,-3.128998c13.559021,-12.631989 52.614014,-36.15799 66.289001,-43.458984l1.970032,-1.042999c10.315002,-5.447021 16.688965,-9.387024 32.10199,-27.466003c-24.453003,63.507996 -82.281982,75.212982 -89.119995,76.371979c-11.588989,1.854004 -25.72699,5.678009 -33.144012,7.880005c8.69101,-10.082001 17.498993,-30.595001 19.006012,-34.766998" fill-rule="nonzero" fill="#000000" id="path70"/>
    <path d="m560.174011,410.324005c0,0 27.119019,-16.920013 42.067993,-29.20401c14.833984,-12.169006 56.786987,-44.270996 51.107971,-99.319c-6.257996,17.963013 -16.57196,34.420013 -28.044983,44.618011c-11.473022,10.199005 -31.869995,42.067993 -36.737976,49.484985c-4.983032,7.417999 -8.343994,9.503998 -8.343994,9.503998c0,0 -1.738037,-3.592987 3.824951,-10.082977c3.940002,-6.606018 11.241028,-22.71402 6.258057,-56.902008c-5.795044,-31.985992 -7.765015,-39.519012 -7.069031,-44.386017c-4.057007,11.241028 -9.271973,35.462006 -10.546997,73.473999c-0.695007,21.556 -2.896973,38.128021 -5.562012,45.429016c-2.666016,7.416992 -6.953979,17.384003 -6.953979,17.384003" fill-rule="nonzero" fill="#000000" id="path72"/>
    <path d="m571.067993,347.510986c-0.695007,20.745026 -2.781006,37.549011 -5.447021,44.850006l-6.836975,17.384003l2.317017,1.970001c0.231995,-0.231995 27.351013,-17.152008 42.184998,-29.320984l1.737976,-1.390015c16.572021,-13.674988 55.510986,-45.428986 49.949036,-99.43399l-3.129028,-0.348022c-6.143005,17.847015 -16.224976,33.956024 -27.58197,44.038025c-10.546021,9.388 -28.625,36.854004 -35.463013,47.283997l-1.622009,2.548981c-2.085999,3.013 -3.708984,4.868011 -4.984009,6.258026c0.463989,-1.274017 1.275024,-2.897003 3.013977,-4.983002c5.562012,-9.271027 8.344055,-21.671021 8.344055,-36.737c0,-6.722015 -0.46405,-13.907013 -1.623047,-21.440002c0,-0.115997 -3.823975,-20.628021 -3.823975,-20.628021c-2.317993,-12.284973 -3.361023,-17.847992 -3.361023,-21.323975c0,-0.696014 0,-1.391022 0.116028,-1.970001l-3.013,-0.812012c-2.202026,5.795013 -9.156006,28.277985 -10.778015,74.053986zm-2.434021,46.009003c2.782043,-7.648987 4.984009,-24.800995 5.679016,-45.892975c1.158997,-33.26001 5.098999,-53.657013 7.996033,-64.667023c0.463989,3.593018 1.274963,8.229004 2.665955,15.182007l3.824036,20.513c1.042969,7.53299 1.622986,14.60199 1.622986,21.09201c0,14.369995 -2.666016,26.190979 -7.765015,34.766998c-3.47699,4.056 -4.287964,7.300995 -4.287964,9.270996c0,1.274994 0.347961,2.085999 0.463989,2.201996l0.695007,1.738007l1.506958,-0.927002c0.231018,-0.115997 3.824036,-2.43399 8.807007,-9.966003l1.739014,-2.549988c6.721008,-10.314026 24.567993,-37.548004 34.882996,-46.588013c10.314026,-9.270996 19.237,-23.756989 25.611023,-39.634003c0.115967,1.274017 0.231995,2.665009 0.231995,3.940002c0,46.123993 -34.187012,74.170013 -49.369019,86.570007l-1.737976,1.390991c-11.242004,9.270996 -29.55304,21.208008 -37.665039,26.423004c1.970032,-4.984009 5.098999,-12.864014 5.098999,-12.864014" fill-rule="nonzero" fill="#000000" id="path74"/>
    <path d="m604.213013,332.213989c0,0 9.154968,-15.065979 17.498962,-24.916992c8.344055,-9.734009 45.313049,-53.656998 23.989014,-125.39299c0.348022,16.803986 -1.622009,26.422989 -3.359985,32.44899c-1.739014,5.911011 -19.470032,46.70401 -21.09198,57.597992c-1.739014,11.009003 -4.404053,31.522003 -8.808044,33.956024c-1.506958,-0.927002 0.348022,-4.636017 0.811035,-7.881012c0.579956,-3.360992 5.330994,-31.638 -11.820984,-61.537994c-15.529053,-26.307007 -18.426025,-28.972 -20.744019,-38.128006c-0.348022,17.5 6.257996,52.035004 10.893982,66.405991c4.867004,14.486023 17.61499,47.862 12.632019,67.447998" fill-rule="nonzero" fill="#000000" id="path76"/>
    <path d="m644.078979,181.904007c0,1.390991 0,2.896988 0,4.287994c0,11.009003 -1.042969,20.048996 -3.244995,27.697998l-5.794006,14.949997c-6.026978,14.949005 -14.255005,35.462006 -15.414001,42.878998l-0.463989,3.128998c-0.810974,5.679016 -2.317017,15.298004 -4.171997,22.019012c0.348022,-2.317993 0.92804,-6.257996 0.92804,-12.052002c0,-12.053009 -2.318054,-30.248001 -13.212036,-49.138c0,0 -10.778015,-17.962997 -10.778015,-17.962997c-6.257996,-10.314011 -8.112,-13.559006 -9.734985,-19.701004l-3.244019,0.347c-0.231995,18.078995 6.605042,53.078003 11.125,66.985001l1.854004,5.330994c5.215027,15.412994 15.06604,44.153992 10.778015,61.190002l2.897034,1.158997c0.115967,-0.115997 9.155945,-15.065979 17.383972,-24.684998c29.552002,-34.766998 38.127991,-79.847992 24.221008,-126.899994l-3.129028,0.464005zm-30.826965,125.39299c4.403992,-2.432983 6.721985,-15.993011 9.039978,-31.984985l0.463013,-3.014008c1.158997,-7.184998 9.619019,-28.277008 15.182007,-42.300003l5.909973,-15.181c1.158997,-4.056 2.317993,-11.126007 2.897034,-20.628998c2.317993,10.315002 3.708984,20.513 3.708984,30.479004c0,30.131989 -10.083008,58.292984 -29.900024,81.58699c-5.214966,6.141998 -10.545959,14.02301 -14.022949,19.354004c0.115967,-1.274994 0.463989,-2.317993 0.463989,-3.59201c0,-17.151978 -7.301025,-38.59198 -12.05304,-52.382996l-1.854004,-5.330994c-3.707947,-11.589005 -8.807983,-37.317001 -10.197998,-55.975006c1.506042,2.897003 3.361023,6.141998 6.374023,11.01001l10.778015,17.96199c10.429993,18.311005 12.631958,35.810989 12.631958,47.400009c0,6.48999 -0.695984,11.240997 -0.927002,12.979004c-0.115967,0 -0.811951,3.013977 -0.811951,3.013977c-0.231018,1.390015 -0.695007,2.665009 -0.695007,3.824005c0,1.158997 0.347961,2.201996 1.390991,2.781006l0.810974,0.463989l0.811035,-0.463989" fill-rule="nonzero" fill="#000000" id="path78"/>
    <path d="m618.004028,244.020996c0,0 5.214966,-23.293991 11.704956,-41.951996c6.489014,-18.658997 18.773987,-61.886002 -16.688965,-105.924004c7.648987,17.615005 5.099976,29.32 5.214966,31.290001c0,1.971008 -3.476013,41.721008 -3.244995,51.572006c0.116028,12.632004 3.014038,34.302994 3.014038,34.302994c0,0 -0.812012,2.666 -2.550049,0.115997c-1.158997,-1.737991 -4.055969,-29.783997 -21.323975,-46.123993c-16.109009,-15.182007 -29.088013,-26.654999 -32.68103,-33.145004c0.232056,11.589005 7.301025,28.160995 12.864014,37.317001c5.562988,9.039001 28.393005,38.938995 33.723999,49.020996c5.215027,10.083008 9.967041,22.136002 9.967041,23.526001" fill-rule="nonzero" fill="#000000" id="path80"/>
    <path d="m611.513977,96.840302c4.63501,10.314697 5.447021,18.542702 5.447021,23.873695c0,2.318001 -0.116028,4.056 -0.231995,5.215004l-0.927002,11.589005l-2.434021,41.488998c0,0 1.854004,21.091995 2.666016,30.246994c-1.971008,-8.923996 -6.606018,-29.667999 -20.861023,-42.994995c0,-0.115997 -8.807983,-8.460007 -8.807983,-8.460007c-11.588989,-10.893997 -20.744019,-19.470001 -23.524963,-24.453003l-3.013,0.811005c0.230957,11.35701 6.953003,28.044998 13.094971,38.128006l13.211975,19.005997c8.228027,11.240997 17.383057,24.104996 20.396057,29.899994c5.44696,10.314011 9.734985,21.671005 9.850952,22.945999l3.244995,0.23201c0,-0.23201 5.215027,-23.410004 11.58905,-41.837006c14.022949,-39.865997 8.343994,-76.023994 -17.036011,-107.430099l-2.665039,1.738403zm5.67804,119.251694c1.622986,-0.231995 2.201965,-1.970993 2.317993,-2.317993c0,0 0,0 0,0c0,-1.275009 -3.013,-34.766998 -3.013,-34.766998l2.549988,-41.141006l0.695007,-10.431c0.115967,-1.737999 0.348022,-3.939995 0.348022,-6.604996c0,-3.825005 -0.812012,-9.155998 -2.318054,-14.950005c11.58905,17.152 17.731018,35.694008 17.731018,55.627007c0,12.863998 -2.434021,26.190994 -7.300964,39.981995c-4.636047,13.328003 -8.57605,28.856995 -10.430054,36.738007c-1.969971,-5.100006 -5.098999,-12.401001 -8.343994,-18.542999c-3.244995,-6.026001 -12.515991,-18.889999 -20.628967,-30.247009l-13.095032,-18.889999c-5.099976,-8.229004 -10.315002,-20.860992 -12.052979,-31.175003c4.288025,5.215012 10.893982,11.705002 20.513,20.860001l8.922974,8.229004c13.559021,12.863007 17.963013,33.028 19.817017,41.604004l1.158997,4.171997c0.927002,1.391006 1.971008,1.970001 3.129028,1.854996" fill-rule="nonzero" fill="#000000" id="path82"/>
    <path d="m606.299011,165.563004c0,0 -2.666016,-6.258011 -0.927002,-31.985001c1.737976,-25.844002 1.969971,-60.958801 -38.359985,-83.673302c10.313965,16.572197 11.936951,19.469498 15.296997,33.028702c3.360962,13.443298 7.300964,35.114594 12.97998,47.283592c2.317993,6.026001 3.940002,10.662003 2.896973,11.240997c-1.042969,0.696014 -1.505981,-0.462997 -2.316956,-2.43399c-0.812012,-2.085999 -9.504028,-20.279999 -26.075989,-31.522003c-16.804016,-11.357002 -31.870056,-22.714302 -37.664001,-34.071503c2.780945,21.323807 11.125,28.740501 19.468994,39.286507c9.039978,11.473 41.256958,35.114998 46.820007,42.879997c5.678955,7.880005 7.880981,9.966003 7.880981,9.966003" fill-rule="nonzero" fill="#000000" id="path84"/>
    <path d="m565.620972,50.831799c10.430054,16.688198 11.937012,19.353703 15.182007,32.449299l2.434021,10.662003c2.896973,12.863899 6.142029,27.465897 10.546021,36.968903c0.230957,0.580002 0.695007,1.737991 1.042969,2.666c-3.708984,-6.722 -11.473999,-18.891006 -24.221985,-27.466003c-15.877014,-10.6623 -31.406006,-22.251396 -37.085022,-33.3769l-3.013,0.927101c2.550049,18.890198 9.272034,27.118797 16.572998,35.925797l3.244995,4.056c4.867004,6.258003 15.992004,15.529999 26.538025,24.569c9.156006,7.649002 17.731995,14.834 20.281006,18.427002l8.112976,10.082001l2.549011,-1.854004c-0.115967,0 -2.549011,-6.48999 -0.810974,-31.175003c1.390991,-21.32299 4.055969,-60.842094 -39.171021,-85.178993l-2.202026,2.317799zm33.377014,91.901203c0.695007,-0.348007 1.04303,-1.042999 1.04303,-2.085999c0,-1.854004 -1.04303,-5.098999 -3.244995,-11.01001c-4.288025,-9.154991 -7.649048,-24.33699 -10.43103,-36.38929l-2.549011,-10.777802c-2.781006,-11.3573 -4.751953,-15.7612 -11.009949,-26.191303c25.495972,17.615398 31.522949,40.561703 31.522949,62.928402c0,4.867996 -0.231995,9.619003 -0.463989,14.255005c-0.463989,6.48999 -0.578979,11.705002 -0.578979,15.876999c0,4.634995 0.11499,7.763992 0.463013,10.313995c-1.970032,-2.434006 -3.940002,-4.867004 -3.940002,-4.867004c-2.782043,-3.824997 -11.126038,-10.893997 -20.860046,-19.005997c-10.082947,-8.459999 -21.440002,-18.079002 -26.191956,-23.989998l-3.244995,-4.172005c-6.026001,-7.417 -11.241028,-14.254395 -14.254028,-26.770599c7.069031,8.923607 18.541992,17.847107 33.608032,27.929604c17.151978,11.705002 25.495972,30.711006 25.612,30.827003c0.694946,1.853989 1.158997,3.128998 2.43396,3.47699l0.695007,0.347l1.390991,-0.694992" fill-rule="nonzero" fill="#000000" id="path86"/>
    <path d="m574.892029,98.115097c0,0 -5.794006,-27.002495 -16.688049,-42.879498c-10.661987,-15.8769 -32.680969,-29.552099 -55.626984,-36.042c8.112,6.489901 13.095001,12.4004 15.993011,17.151901c2.896973,4.751499 20.859985,31.290401 28.971985,39.634502c8.228027,8.459999 21.440002,15.761093 27.350037,22.135094" fill-rule="nonzero" fill="#000000" id="path88"/>
    <path d="m501.533997,20.468399c8.807007,6.837601 13.327026,12.863899 15.64502,16.688301c2.781006,4.635601 20.859985,31.406403 29.320007,39.982201c0,0 15.529968,12.632103 15.529968,12.632103l11.820007,9.387093l2.666016,-1.390694c-0.231995,-1.158905 -6.026001,-27.466003 -16.920044,-43.458904c-10.777954,-15.761097 -32.448975,-29.783798 -56.554962,-36.621399l-1.506012,2.7813l0,0zm62.348999,66.752998l-15.182007,-12.400299c-8.112,-8.228195 -26.075012,-34.998898 -28.740967,-39.2869c-2.433044,-3.940199 -6.142029,-7.996399 -10.430023,-12.168499c20.397003,7.3011 38.243988,19.237801 47.399017,32.797001c7.880981,11.5891 13.211975,29.436199 15.297974,37.780399c-3.47699,-2.897301 -8.343994,-6.721703 -8.343994,-6.721703" fill-rule="nonzero" fill="#000000" id="path90"/>
   </g>
  </g>
 </g>
</svg>